<?xml version="1.0" standalone="no"?>
<!DOCTYPE svg PUBLIC "-//W3C//DTD SVG 20010904//EN"
 "http://www.w3.org/TR/2001/REC-SVG-20010904/DTD/svg10.dtd">
<svg version="1.0" xmlns="http://www.w3.org/2000/svg"
 width="250.000000pt" height="250.000000pt" viewBox="0 0 250.000000 250.000000"
 preserveAspectRatio="xMidYMid meet">
<metadata>
Created by potrace 1.14, written by Peter Selinger 2001-2017
</metadata>
<g transform="translate(0.000000,250.000000) scale(0.100000,-0.100000)"
fill="#000000" stroke="none">
<path d="M1118 2495 c-2 -1 -23 -5 -48 -8 -25 -3 -52 -8 -60 -11 -8 -3 -29 -7
-45 -9 -54 -8 -218 -68 -295 -109 -211 -112 -398 -295 -514 -501 -44 -79 -112
-256 -120 -312 -4 -31 -2 -28 10 15 22 80 96 232 150 309 67 94 225 249 319
310 294 193 633 259 999 196 66 -11 217 -61 298 -98 275 -126 516 -375 610
-630 28 -78 36 -65 8 15 -116 335 -384 616 -714 748 -70 28 -180 59 -266 75
-36 7 -326 16 -332 10z"/>
<path d="M820 2268 c-83 -12 -172 -62 -237 -132 -59 -64 -116 -170 -128 -241
-12 -69 -13 -79 -14 -132 -1 -38 -5 -53 -15 -53 -7 0 -50 -18 -95 -41 -230
-115 -345 -359 -278 -589 19 -64 89 -186 141 -247 52 -60 165 -132 254 -161
62 -20 99 -25 184 -26 60 -1 108 -4 108 -7 0 -4 -6 -22 -14 -40 -27 -65 -39
-196 -24 -264 5 -22 20 -63 33 -92 19 -43 21 -51 7 -43 -9 5 -55 27 -102 50
-251 123 -454 341 -566 610 -37 87 -28 39 11 -63 149 -385 471 -663 890 -767
183 -45 471 -32 663 30 253 83 499 268 649 490 69 102 173 335 173 387 0 10
-11 -11 -23 -47 -135 -382 -494 -677 -929 -765 -42 -8 -80 -15 -83 -15 -4 0 8
12 27 27 56 47 107 105 143 163 37 60 85 192 86 237 1 50 10 58 68 61 257 14
472 246 473 511 0 79 2 87 29 115 89 95 125 244 90 372 -28 103 -145 256 -246
321 -208 135 -522 184 -765 118 -30 -8 -60 -15 -66 -15 -6 0 -28 25 -49 56
-98 142 -244 213 -395 192z"/>
<path d="M37 939 c4 -13 8 -18 11 -10 2 7 -1 18 -6 23 -8 8 -9 4 -5 -13z"/>
</g>
</svg>
